<svg width="1816" height="377" viewBox="0 0 1816 377" fill="none" xmlns="http://www.w3.org/2000/svg">
<path d="M474.106 118.403V303.289H510.655V349.547H414V118.403H474.106Z" fill="black"/>
<path d="M645.509 258.174H570.841V299.149C570.841 307.715 571.46 313.236 572.697 315.71C573.934 318.185 576.314 319.422 579.835 319.422C584.214 319.422 587.117 317.804 588.544 314.568C590.067 311.237 590.829 304.86 590.829 295.437V270.452H645.509V284.444C645.509 296.151 644.748 305.145 643.225 311.427C641.797 317.709 638.371 324.419 632.946 331.558C627.521 338.696 620.62 344.074 612.244 347.691C603.964 351.212 593.541 352.973 580.978 352.973C568.795 352.973 558.039 351.212 548.712 347.691C539.384 344.169 532.103 339.363 526.868 333.271C521.728 327.084 518.159 320.327 516.16 312.998C514.161 305.574 513.162 294.818 513.162 280.732V225.48C513.162 208.919 515.399 195.879 519.872 186.361C524.346 176.748 531.675 169.419 541.859 164.375C552.043 159.235 563.75 156.665 576.98 156.665C593.161 156.665 606.486 159.758 616.956 165.945C627.521 172.037 634.897 180.174 639.085 190.359C643.368 200.448 645.509 214.677 645.509 233.047V258.174ZM587.688 227.336V213.487C587.688 203.684 587.164 197.354 586.117 194.499C585.07 191.644 582.929 190.216 579.693 190.216C575.695 190.216 573.22 191.453 572.269 193.928C571.317 196.307 570.841 202.827 570.841 213.487V227.336H587.688Z" fill="black"/>
<path d="M774.939 160.092L747.955 349.547H672.716L643.733 160.092H695.273L711.406 298.293C712.644 288.203 714.738 263.457 717.688 224.052C719.401 202.066 721.305 180.746 723.399 160.092H774.939Z" fill="black"/>
<path d="M905.51 258.174H830.842V299.149C830.842 307.715 831.46 313.236 832.698 315.71C833.935 318.185 836.314 319.422 839.836 319.422C844.214 319.422 847.117 317.804 848.545 314.568C850.068 311.237 850.829 304.86 850.829 295.437V270.452H905.51V284.444C905.51 296.151 904.749 305.145 903.226 311.427C901.798 317.709 898.372 324.419 892.946 331.558C887.521 338.696 880.621 344.074 872.245 347.691C863.964 351.212 853.542 352.973 840.978 352.973C828.795 352.973 818.04 351.212 808.712 347.691C799.385 344.169 792.103 339.363 786.869 333.271C781.729 327.084 778.16 320.327 776.161 312.998C774.162 305.574 773.163 294.818 773.163 280.732V225.48C773.163 208.919 775.399 195.879 779.873 186.361C784.346 176.748 791.675 169.419 801.859 164.375C812.044 159.235 823.751 156.665 836.981 156.665C853.161 156.665 866.486 159.758 876.956 165.945C887.521 172.037 894.898 180.174 899.085 190.359C903.369 200.448 905.51 214.677 905.51 233.047V258.174ZM847.688 227.336V213.487C847.688 203.684 847.165 197.354 846.118 194.499C845.071 191.644 842.929 190.216 839.693 190.216C835.696 190.216 833.221 191.453 832.269 193.928C831.317 196.307 830.842 202.827 830.842 213.487V227.336H847.688Z" fill="black"/>
<path d="M975.119 118.403V349.547H915.727V118.403H975.119Z" fill="black"/>
<path d="M1125.54 118.403V272.88C1125.54 290.393 1124.96 302.718 1123.82 309.857C1122.68 316.9 1119.3 324.181 1113.69 331.701C1108.07 339.125 1100.65 344.788 1091.41 348.69C1082.28 352.497 1071.47 354.401 1059 354.401C1045.2 354.401 1033.02 352.117 1022.46 347.548C1011.89 342.979 1003.99 337.031 998.756 329.702C993.521 322.373 990.428 314.663 989.476 306.573C988.524 298.388 988.048 281.255 988.048 255.176V118.403H1048.15V291.725C1048.15 301.814 1048.68 308.286 1049.72 311.142C1050.87 313.902 1053.1 315.282 1056.43 315.282C1060.24 315.282 1062.67 313.759 1063.72 310.713C1064.86 307.573 1065.43 300.244 1065.43 288.727V118.403H1125.54Z" fill="black"/>
<path d="M1197 160.092L1196 176.796C1201.14 170.038 1206.8 164.993 1212.99 161.662C1219.18 158.331 1225.93 156.665 1233.26 156.665C1242.21 156.665 1249.92 159.092 1256.39 163.946C1262.96 168.705 1267.05 174.226 1268.67 180.508C1270.29 186.789 1271.1 197.45 1271.1 212.488V292.296C1271.1 309.524 1270.05 321.802 1267.96 329.131C1265.96 336.364 1261.77 342.17 1255.39 346.549C1249.11 350.832 1241.5 352.973 1232.55 352.973C1225.41 352.973 1218.8 351.308 1212.7 347.976C1206.61 344.645 1201.05 339.696 1196 333.128V376.53H1138.32V160.092H1197ZM1213.42 215.201C1213.42 203.494 1212.99 196.403 1212.13 193.928C1211.28 191.453 1208.9 190.216 1204.99 190.216C1201.19 190.216 1198.71 191.644 1197.57 194.499C1196.52 197.354 1196 204.255 1196 215.201V293.724C1196 305.145 1196.57 312.284 1197.71 315.139C1198.86 317.995 1201.33 319.422 1205.14 319.422C1208.85 319.422 1211.13 318.138 1211.99 315.568C1212.94 312.903 1213.42 306.526 1213.42 296.437V215.201Z" fill="black"/>
<path d="M1371.2 118.403V303.289H1407.75V349.547H1311.1V118.403H1371.2Z" fill="#5A5A59"/>
<path d="M1463.51 233.475H1409.4V220.769C1409.4 206.111 1411.07 194.832 1414.4 186.932C1417.83 178.937 1424.63 171.894 1434.82 165.802C1445 159.711 1458.23 156.665 1474.51 156.665C1494.02 156.665 1508.72 160.139 1518.62 167.087C1528.52 173.94 1534.47 182.411 1536.47 192.5C1538.47 202.494 1539.47 223.148 1539.47 254.462V349.547H1483.36V332.7C1479.84 339.458 1475.27 344.55 1469.65 347.976C1464.13 351.308 1457.52 352.973 1449.81 352.973C1439.72 352.973 1430.44 350.165 1421.97 344.55C1413.59 338.839 1409.4 326.418 1409.4 307.287V291.725C1409.4 277.543 1411.64 267.883 1416.11 262.743C1420.59 257.603 1431.68 251.607 1449.38 244.754C1468.32 237.33 1478.46 232.333 1479.79 229.763C1481.12 227.193 1481.79 221.958 1481.79 214.058C1481.79 204.16 1481.03 197.735 1479.5 194.785C1478.08 191.739 1475.65 190.216 1472.22 190.216C1468.32 190.216 1465.89 191.501 1464.94 194.071C1463.99 196.545 1463.51 203.065 1463.51 213.63V233.475ZM1481.79 259.459C1472.55 266.217 1467.18 271.88 1465.65 276.449C1464.23 281.017 1463.51 287.585 1463.51 296.151C1463.51 305.954 1464.13 312.284 1465.37 315.139C1466.7 317.995 1469.27 319.422 1473.08 319.422C1476.7 319.422 1479.03 318.328 1480.07 316.139C1481.22 313.854 1481.79 307.953 1481.79 298.435V259.459Z" fill="#5A5A59"/>
<path d="M1608.22 118.403V173.084C1612.98 167.563 1618.26 163.47 1624.07 160.805C1629.97 158.045 1636.34 156.665 1643.2 156.665C1651.1 156.665 1657.95 157.902 1663.76 160.377C1669.56 162.852 1673.99 166.326 1677.03 170.799C1680.08 175.273 1681.89 179.651 1682.46 183.934C1683.12 188.217 1683.46 197.354 1683.46 211.346V296.722C1683.46 310.618 1682.51 320.993 1680.6 327.846C1678.79 334.604 1674.46 340.505 1667.61 345.549C1660.76 350.499 1652.62 352.973 1643.2 352.973C1636.44 352.973 1630.11 351.498 1624.21 348.547C1618.4 345.597 1613.07 341.171 1608.22 335.27L1604.51 349.547H1550.54V118.403H1608.22ZM1625.78 213.916C1625.78 204.112 1625.16 197.735 1623.92 194.785C1622.69 191.739 1620.26 190.216 1616.64 190.216C1613.12 190.216 1610.84 191.548 1609.79 194.213C1608.74 196.783 1608.22 203.351 1608.22 213.916V295.58C1608.22 305.764 1608.79 312.284 1609.93 315.139C1611.17 317.995 1613.55 319.422 1617.07 319.422C1620.69 319.422 1623.02 317.947 1624.07 314.997C1625.21 312.046 1625.78 304.955 1625.78 293.724V213.916Z" fill="#5A5A59"/>
<path d="M1811.46 220.626H1760.35V210.346C1760.35 201.59 1759.82 196.07 1758.78 193.785C1757.83 191.406 1755.35 190.216 1751.35 190.216C1748.12 190.216 1745.69 191.311 1744.07 193.5C1742.45 195.594 1741.65 198.782 1741.65 203.065C1741.65 208.871 1742.03 213.154 1742.79 215.914C1743.64 218.58 1746.07 221.53 1750.07 224.766C1754.16 228.002 1762.49 232.714 1775.05 238.9C1791.8 247.086 1802.8 254.795 1808.03 262.029C1813.27 269.263 1815.89 279.78 1815.89 293.581C1815.89 309 1813.89 320.66 1809.89 328.56C1805.89 336.364 1799.18 342.408 1789.76 346.691C1780.43 350.879 1769.15 352.973 1755.92 352.973C1741.26 352.973 1728.7 350.689 1718.23 346.12C1707.86 341.552 1700.72 335.365 1696.82 327.56C1692.91 319.756 1690.96 307.953 1690.96 292.153V283.016H1742.07V295.009C1742.07 305.193 1742.69 311.808 1743.93 314.854C1745.26 317.9 1747.83 319.422 1751.64 319.422C1755.73 319.422 1758.59 318.423 1760.21 316.424C1761.82 314.33 1762.63 310 1762.63 303.432C1762.63 294.39 1761.59 288.727 1759.49 286.443C1757.3 284.158 1746.12 277.401 1725.94 266.169C1709 256.651 1698.67 248.038 1694.96 240.328C1691.25 232.523 1689.39 223.291 1689.39 212.631C1689.39 197.497 1691.39 186.361 1695.39 179.223C1699.39 171.989 1706.14 166.421 1715.66 162.519C1725.27 158.616 1736.41 156.665 1749.07 156.665C1761.63 156.665 1772.29 158.283 1781.05 161.519C1789.9 164.66 1796.66 168.848 1801.32 174.083C1806.08 179.318 1808.94 184.172 1809.89 188.645C1810.94 193.119 1811.46 200.115 1811.46 209.633V220.626Z" fill="#5A5A59"/>
<path d="M100.931 248.933H151.617L180.85 219.7H133.488V118.77H350L350.001 349.909H249.07V294.216L193.499 349.787L193.5 349.933H0V98.9326L100.931 0V248.933Z" fill="black"/>
</svg>
