<svg width="1402" height="259" viewBox="0 0 1402 259" fill="none" xmlns="http://www.w3.org/2000/svg">
<path d="M60.106 0V184.887H96.655V231.144H0V0H60.106Z" fill="black"/>
<path d="M231.509 139.771H156.841V180.746C156.841 189.312 157.46 194.833 158.697 197.308C159.934 199.782 162.314 201.02 165.835 201.02C170.214 201.02 173.117 199.402 174.544 196.165C176.067 192.834 176.829 186.457 176.829 177.034V152.05H231.509V166.041C231.509 177.748 230.748 186.743 229.225 193.025C227.797 199.306 224.371 206.017 218.946 213.155C213.521 220.293 206.62 225.671 198.244 229.288C189.964 232.81 179.541 234.57 166.978 234.57C154.795 234.57 144.039 232.81 134.712 229.288C125.384 225.766 118.103 220.96 112.868 214.868C107.728 208.682 104.159 201.924 102.16 194.595C100.161 187.171 99.1621 176.416 99.1621 162.329V107.077C99.1621 90.5159 101.399 77.4763 105.872 67.9583C110.346 58.3452 117.675 51.0163 127.859 45.9718C138.043 40.8321 149.75 38.2623 162.98 38.2623C179.161 38.2623 192.486 41.3556 202.956 47.5423C213.521 53.6338 220.897 61.7716 225.085 71.9559C229.368 82.0449 231.509 96.2743 231.509 114.644V139.771ZM173.688 108.933V95.0846C173.688 85.281 173.164 78.9516 172.117 76.0962C171.07 73.2408 168.929 71.8131 165.693 71.8131C161.695 71.8131 159.22 73.0505 158.269 75.5251C157.317 77.9046 156.841 84.4244 156.841 95.0846V108.933H173.688Z" fill="black"/>
<path d="M360.939 41.6887L333.955 231.144H258.716L229.733 41.6887H281.273L297.406 179.89C298.644 169.801 300.738 145.054 303.688 105.65C305.401 83.663 307.305 62.3427 309.399 41.6887H360.939Z" fill="black"/>
<path d="M491.51 139.771H416.842V180.746C416.842 189.312 417.46 194.833 418.698 197.308C419.935 199.782 422.314 201.02 425.836 201.02C430.214 201.02 433.117 199.402 434.545 196.165C436.068 192.834 436.829 186.457 436.829 177.034V152.05H491.51V166.041C491.51 177.748 490.749 186.743 489.226 193.025C487.798 199.306 484.372 206.017 478.946 213.155C473.521 220.293 466.621 225.671 458.245 229.288C449.964 232.81 439.542 234.57 426.978 234.57C414.795 234.57 404.04 232.81 394.712 229.288C385.385 225.766 378.103 220.96 372.869 214.868C367.729 208.682 364.16 201.924 362.161 194.595C360.162 187.171 359.163 176.416 359.163 162.329V107.077C359.163 90.5159 361.399 77.4763 365.873 67.9583C370.346 58.3452 377.675 51.0163 387.859 45.9718C398.044 40.8321 409.751 38.2623 422.981 38.2623C439.161 38.2623 452.486 41.3556 462.956 47.5423C473.521 53.6338 480.898 61.7716 485.085 71.9559C489.369 82.0449 491.51 96.2743 491.51 114.644V139.771ZM433.688 108.933V95.0846C433.688 85.281 433.165 78.9516 432.118 76.0962C431.071 73.2408 428.929 71.8131 425.693 71.8131C421.696 71.8131 419.221 73.0505 418.269 75.5251C417.317 77.9046 416.842 84.4244 416.842 95.0846V108.933H433.688Z" fill="black"/>
<path d="M561.119 0V231.144H501.727V0H561.119Z" fill="black"/>
<path d="M711.535 0V154.477C711.535 171.99 710.964 184.316 709.822 191.454C708.68 198.497 705.301 205.779 699.685 213.298C694.07 220.722 686.646 226.385 677.413 230.287C668.276 234.095 657.473 235.998 645.005 235.998C631.203 235.998 619.02 233.714 608.456 229.145C597.891 224.577 589.991 218.628 584.756 211.299C579.521 203.97 576.428 196.261 575.476 188.17C574.524 179.985 574.048 162.853 574.048 136.773V0H634.154V173.322C634.154 183.411 634.678 189.884 635.724 192.739C636.867 195.499 639.103 196.879 642.435 196.879C646.242 196.879 648.669 195.356 649.716 192.311C650.858 189.17 651.429 181.841 651.429 170.324V0H711.535Z" fill="black"/>
<path d="M783 41.6887L782.001 58.3928C787.14 51.635 792.803 46.5905 798.99 43.2592C805.177 39.9279 811.935 38.2623 819.263 38.2623C828.21 38.2623 835.92 40.6893 842.392 45.5435C848.959 50.3025 853.052 55.8229 854.67 62.1048C856.288 68.3866 857.097 79.0468 857.097 94.0852V173.893C857.097 191.121 856.05 203.399 853.956 210.728C851.958 217.962 847.77 223.768 841.393 228.146C835.111 232.429 827.496 234.57 818.55 234.57C811.411 234.57 804.796 232.905 798.705 229.574C792.613 226.242 787.045 221.293 782.001 214.725V258.127H724.322V41.6887H783ZM799.418 96.7978C799.418 85.0907 798.99 77.9998 798.133 75.5251C797.277 73.0505 794.897 71.8131 790.995 71.8131C787.188 71.8131 784.713 73.2408 783.571 76.0962C782.524 78.9516 782.001 85.8521 782.001 96.7978V175.321C782.001 186.743 782.572 193.881 783.714 196.737C784.856 199.592 787.331 201.02 791.138 201.02C794.85 201.02 797.134 199.735 797.991 197.165C798.943 194.5 799.418 188.123 799.418 178.034V96.7978Z" fill="black"/>
<path d="M957.204 0V184.887H993.753V231.144H897.098V0H957.204Z" fill="#5A5A59"/>
<path d="M1049.51 115.072H995.403V102.366C995.403 87.7081 997.069 76.4293 1000.4 68.5294C1003.83 60.5343 1010.63 53.491 1020.82 47.3995C1031 41.308 1044.23 38.2623 1060.51 38.2623C1080.02 38.2623 1094.72 41.7363 1104.62 48.6844C1114.52 55.5374 1120.47 64.0084 1122.47 74.0974C1124.47 84.0913 1125.47 104.745 1125.47 136.059V231.144H1069.36V214.297C1065.84 221.055 1061.27 226.147 1055.65 229.574C1050.13 232.905 1043.52 234.57 1035.81 234.57C1025.72 234.57 1016.44 231.763 1007.97 226.147C999.591 220.436 995.403 208.015 995.403 188.884V173.322C995.403 159.141 997.64 149.48 1002.11 144.34C1006.59 139.2 1017.68 133.204 1035.38 126.351C1054.32 118.927 1064.46 113.93 1065.79 111.36C1067.12 108.79 1067.79 103.556 1067.79 95.6556C1067.79 85.7569 1067.03 79.3323 1065.5 76.3817C1064.08 73.336 1061.65 71.8131 1058.22 71.8131C1054.32 71.8131 1051.89 73.098 1050.94 75.6679C1049.99 78.1426 1049.51 84.6624 1049.51 95.2273V115.072ZM1067.79 141.056C1058.55 147.814 1053.18 153.477 1051.65 158.046C1050.23 162.615 1049.51 169.182 1049.51 177.748C1049.51 187.552 1050.13 193.881 1051.37 196.737C1052.7 199.592 1055.27 201.02 1059.08 201.02C1062.7 201.02 1065.03 199.925 1066.07 197.736C1067.22 195.452 1067.79 189.55 1067.79 180.032V141.056Z" fill="#5A5A59"/>
<path d="M1194.22 0V54.6808C1198.98 49.1603 1204.26 45.0676 1210.07 42.4026C1215.97 39.6424 1222.34 38.2623 1229.2 38.2623C1237.1 38.2623 1243.95 39.4996 1249.76 41.9743C1255.56 44.4489 1259.99 47.923 1263.03 52.3964C1266.08 56.8699 1267.89 61.2482 1268.46 65.5312C1269.12 69.8143 1269.46 78.9516 1269.46 92.943V178.319C1269.46 192.215 1268.51 202.59 1266.6 209.443C1264.79 216.201 1260.46 222.102 1253.61 227.146C1246.76 232.096 1238.62 234.57 1229.2 234.57C1222.44 234.57 1216.11 233.095 1210.21 230.145C1204.4 227.194 1199.07 222.768 1194.22 216.867L1190.51 231.144H1136.54V0H1194.22ZM1211.78 95.5129C1211.78 85.7094 1211.16 79.3323 1209.92 76.3817C1208.69 73.336 1206.26 71.8131 1202.64 71.8131C1199.12 71.8131 1196.84 73.1456 1195.79 75.8107C1194.74 78.3805 1194.22 84.9479 1194.22 95.5129V177.177C1194.22 187.361 1194.79 193.881 1195.93 196.737C1197.17 199.592 1199.55 201.02 1203.07 201.02C1206.69 201.02 1209.02 199.544 1210.07 196.594C1211.21 193.643 1211.78 186.552 1211.78 175.321V95.5129Z" fill="#5A5A59"/>
<path d="M1397.46 102.223H1346.35V91.9436C1346.35 83.1871 1345.82 77.6667 1344.78 75.3824C1343.83 73.0029 1341.35 71.8131 1337.35 71.8131C1334.12 71.8131 1331.69 72.9077 1330.07 75.0968C1328.45 77.1908 1327.65 80.3793 1327.65 84.6624C1327.65 90.4683 1328.03 94.7514 1328.79 97.5116C1329.64 100.177 1332.07 103.127 1336.07 106.363C1340.16 109.599 1348.49 114.311 1361.05 120.498C1377.8 128.683 1388.8 136.393 1394.03 143.626C1399.27 150.86 1401.89 161.377 1401.89 175.178C1401.89 190.597 1399.89 202.257 1395.89 210.157C1391.89 217.962 1385.18 224.006 1375.76 228.289C1366.43 232.477 1355.15 234.57 1341.92 234.57C1327.26 234.57 1314.7 232.286 1304.23 227.718C1293.86 223.149 1286.72 216.962 1282.82 209.157C1278.91 201.353 1276.96 189.55 1276.96 173.751V164.613H1328.07V176.606C1328.07 186.79 1328.69 193.405 1329.93 196.451C1331.26 199.497 1333.83 201.02 1337.64 201.02C1341.73 201.02 1344.59 200.02 1346.21 198.021C1347.82 195.927 1348.63 191.597 1348.63 185.029C1348.63 175.987 1347.59 170.324 1345.49 168.04C1343.3 165.756 1332.12 158.998 1311.94 147.767C1295 138.249 1284.67 129.635 1280.96 121.925C1277.25 114.121 1275.39 104.888 1275.39 94.2279C1275.39 79.0944 1277.39 67.9583 1281.39 60.8199C1285.39 53.5862 1292.14 48.0182 1301.66 44.1158C1311.27 40.2134 1322.41 38.2623 1335.07 38.2623C1347.63 38.2623 1358.29 39.8803 1367.05 43.1164C1375.9 46.2574 1382.66 50.4453 1387.32 55.6801C1392.08 60.915 1394.94 65.7692 1395.89 70.2426C1396.94 74.7161 1397.46 81.7118 1397.46 91.2298V102.223Z" fill="#5A5A59"/>
</svg>
